<svg version="1.1" id="Layer_1" xmlns="http://www.w3.org/2000/svg" xmlns:xlink="http://www.w3.org/1999/xlink" x="0px" y="0px"
	 width="100%" viewBox="0 0 1024 1024" enable-background="new 0 0 1024 1024" xml:space="preserve">
<path fill="#000000" opacity="1.000000" stroke="none" 
	d="
M687.118469,227.954559 
	C694.508667,237.583206 697.441956,248.128067 697.418823,259.906952 
	C697.276550,332.386658 697.357483,404.866821 697.341003,477.346832 
	C697.334595,505.356720 676.441956,526.300964 648.434814,526.309753 
	C557.959778,526.338318 467.484711,526.342468 377.009644,526.315491 
	C349.707458,526.307312 328.660034,505.146606 328.657928,477.813110 
	C328.652313,404.500000 328.646210,331.186890 328.673401,257.873779 
	C328.683716,230.041092 349.048798,209.746582 376.994751,209.738785 
	C466.803314,209.713760 556.612000,209.801727 646.420288,209.659668 
	C662.785950,209.633789 676.286438,215.192154 687.118469,227.954559 
M448.500000,502.810272 
	C514.304749,502.804626 580.109436,502.807098 645.914185,502.770447 
	C649.388489,502.768524 652.882812,503.067047 656.325378,502.034882 
	C668.008789,498.531830 674.578186,488.952179 674.585938,474.784454 
	C674.624756,403.482086 674.630127,332.179718 674.589783,260.877350 
	C674.580078,243.824829 664.106262,233.405640 647.166199,233.403336 
	C557.704956,233.391205 468.243683,233.390747 378.782440,233.400879 
	C362.111237,233.402771 352.071442,243.411469 352.066528,260.120819 
	C352.045288,332.089386 352.315674,404.059479 351.881592,476.025391 
	C351.778717,493.083008 364.800323,503.337280 378.534912,502.954926 
	C401.506836,502.315399 424.509979,502.798523 448.500000,502.810272 
z"/>
<path fill="#000000" opacity="1.000000" stroke="none" 
	d="
M518.217102,603.000000 
	C518.221436,632.991150 518.115967,662.483215 518.337158,691.972717 
	C518.374817,696.993286 517.013428,698.858337 511.879547,698.454285 
	C506.580963,698.037354 501.217346,698.215881 495.893860,698.427734 
	C492.350922,698.568848 491.426208,697.244385 491.460083,693.760559 
	C491.652802,673.937866 491.608459,654.112610 491.596313,634.288269 
	C491.594543,631.378235 491.334167,628.468262 491.169739,625.067932 
	C480.796936,641.791016 470.744446,658.050415 460.632050,674.272583 
	C457.029541,680.051636 453.514832,680.010742 449.866882,674.296753 
	C440.815826,660.119324 431.765259,645.941589 422.681946,631.784851 
	C422.191742,631.020935 422.054535,629.870544 420.263519,629.562012 
	C420.263519,652.390198 420.263519,675.095642 420.263519,698.300476 
	C411.727173,698.300476 403.773773,698.300598 395.820374,698.300293 
	C393.779541,698.300232 392.751251,697.290833 392.748413,695.237976 
	C392.747009,694.238647 392.698944,693.239258 392.699066,692.239929 
	C392.703064,656.917175 392.791382,621.593994 392.621857,586.272034 
	C392.598816,581.463379 394.057648,579.713257 398.867462,579.998352 
	C404.346130,580.323181 409.866821,580.232910 415.355316,579.997803 
	C419.174469,579.834167 421.459137,581.436646 423.419647,584.595703 
	C432.815979,599.736877 442.376495,614.776184 451.905518,629.834717 
	C453.051910,631.646362 454.361267,633.354858 456.159943,635.915161 
	C459.870239,629.976074 463.338104,624.609863 466.620575,619.132507 
	C473.554016,607.563110 480.502319,595.999512 487.190399,584.288391 
	C488.920197,581.259399 490.940765,579.860229 494.340271,580.168823 
	C500.823029,580.757324 507.317078,580.802795 513.802612,580.223267 
	C517.015198,579.936218 518.328552,581.231140 518.247375,584.506836 
	C518.098938,590.501160 518.212891,596.501892 518.217102,603.000000 
z"/>
<path fill="#000000" opacity="1.000000" stroke="none" 
	d="
M590.312683,700.320801 
	C576.204834,698.415833 564.125854,693.629700 555.591248,682.088745 
	C549.162048,673.394836 547.021484,663.366455 546.919250,652.913208 
	C546.699341,630.422485 546.912842,607.927734 546.776245,585.435730 
	C546.754639,581.875732 547.618774,580.611816 551.449341,580.374084 
	C558.297974,579.948975 565.096924,581.100769 571.915527,580.477722 
	C575.009399,580.195007 574.936462,582.312622 574.861328,584.418030 
	C574.136169,604.724304 575.620300,625.047791 574.404053,645.348267 
	C574.122742,650.045105 574.749634,654.662170 575.424561,659.261230 
	C576.951782,669.668884 588.743652,677.335144 599.953857,675.357361 
	C614.075439,672.865845 619.031372,666.728577 618.977173,652.056458 
	C618.895325,629.897644 619.004822,607.737305 618.763306,585.580566 
	C618.715881,581.232178 620.197876,580.204651 624.246704,580.383057 
	C629.889099,580.631836 635.561462,580.284180 641.218018,580.101318 
	C644.687378,579.989258 646.298584,581.197937 646.275513,585.015625 
	C646.133789,608.507385 646.663574,632.012939 646.045776,655.489624 
	C645.270508,684.956360 624.610535,699.213135 599.772888,700.353577 
	C596.780762,700.491028 593.775818,700.351624 590.312683,700.320801 
z"/>
<path fill="#000000" opacity="1.000000" stroke="none" 
	d="
M746.888428,651.195374 
	C733.654114,651.322998 720.828491,651.502014 708.009521,651.285828 
	C703.654968,651.212463 701.921875,652.573853 702.251587,656.985901 
	C702.536194,660.794983 702.558044,664.663513 702.237976,668.467285 
	C701.873657,672.798279 703.758362,673.811951 707.742554,673.761780 
	C722.062988,673.581604 736.389465,673.836975 750.708496,673.607971 
	C755.052429,673.538452 756.659729,674.816589 756.416504,679.266418 
	C756.082458,685.379456 756.332886,691.524475 756.332886,697.251343 
	C754.535339,698.749695 752.978638,698.351074 751.524292,698.352356 
	C728.041626,698.373291 704.557983,698.251404 681.077209,698.464233 
	C676.300293,698.507507 674.800842,697.112305 674.825867,692.267395 
	C675.007751,657.127686 674.987732,621.986328 674.842773,586.846252 
	C674.824646,582.458496 675.435059,580.396667 680.643005,580.309265 
	C696.129150,580.049438 711.606445,580.131897 727.089294,580.289551 
	C734.408875,580.364136 741.732178,580.227295 749.051697,580.083130 
	C752.290283,580.019409 753.896973,580.850342 753.632324,584.657471 
	C753.253174,590.112854 753.363464,595.629089 753.675476,601.095947 
	C753.870850,604.519348 752.580505,605.413940 749.404297,605.390808 
	C735.581970,605.290100 721.756409,605.498535 707.936584,605.288330 
	C703.546326,605.221558 701.896545,606.698181 702.246033,611.065002 
	C702.537354,614.705933 702.501282,618.400696 702.262390,622.048767 
	C702.014221,625.838745 703.647278,626.960571 707.235291,626.919006 
	C719.058228,626.782043 730.887695,627.047180 742.706360,626.784668 
	C747.084106,626.687439 748.850708,628.026550 748.361938,632.446594 
	C747.677429,638.637329 749.527283,644.979980 746.888428,651.195374 
z"/>
<path fill="#000000" opacity="1.000000" stroke="none" 
	d="
M344.992401,691.904175 
	C342.641754,686.380127 342.787811,679.363525 338.218689,676.331787 
	C333.887482,673.458008 327.525665,675.563721 322.061737,675.446045 
	C314.904663,675.291870 307.738708,675.535522 300.582367,675.365112 
	C296.883942,675.277100 294.652527,676.599731 293.514282,680.202332 
	C291.962341,685.114258 290.109589,689.930847 288.411621,694.797241 
	C287.790131,696.578430 287.175751,698.325989 284.830414,698.327087 
	C276.706879,698.330872 268.583344,698.328552 260.763550,698.328552 
	C259.309357,695.842346 260.539948,694.197266 261.140717,692.585632 
	C274.617218,656.432922 288.170288,620.308716 301.608429,584.141785 
	C302.698853,581.207092 304.222839,579.893494 307.426971,579.982727 
	C314.082825,580.168152 320.748230,580.116211 327.407562,580.016296 
	C330.018829,579.977173 331.772461,580.624512 332.782135,583.322449 
	C346.828674,620.855652 360.948669,658.361389 375.033508,695.880310 
	C375.197876,696.318054 375.135529,696.841003 375.214264,697.715881 
	C370.845520,699.020386 366.391357,698.112000 362.029144,698.328979 
	C359.370941,698.461304 356.661469,698.079712 354.045868,698.441284 
	C349.030273,699.134583 346.091827,697.240967 344.992401,691.904175 
M306.150085,646.381897 
	C305.565308,647.909058 304.742249,649.386658 305.212189,651.593384 
	C313.260101,651.593384 321.359589,651.593384 330.231964,651.593384 
	C325.988190,639.415039 321.947235,627.818665 317.906281,616.222351 
	C317.523651,616.247803 317.140991,616.273254 316.758331,616.298706 
	C313.293579,626.083618 309.828857,635.868591 306.150085,646.381897 
z"/>
<path fill="#000000" opacity="1.000000" stroke="none" 
	d="
M245.192947,649.071533 
	C254.556076,671.175171 244.769943,691.977783 221.613113,698.133606 
	C201.875168,703.380737 183.000534,700.706116 165.934967,688.758118 
	C164.440140,687.711487 163.119171,686.419861 161.678696,685.291565 
	C159.044159,683.227783 158.816803,681.280151 161.287186,678.706909 
	C165.880493,673.922363 169.761185,668.468079 175.102066,663.743530 
	C177.483246,665.529297 179.733810,667.427307 182.184250,669.017334 
	C191.247147,674.898193 200.884003,678.482239 211.898041,675.717773 
	C216.744064,674.501465 220.651962,671.868164 221.417023,666.661804 
	C222.141388,661.732178 218.790329,658.630615 215.006882,656.229675 
	C208.898972,652.353516 201.931290,650.526123 195.160492,648.246704 
	C189.955139,646.494202 184.808502,644.616577 179.989105,641.916809 
	C168.272308,635.353088 162.359467,625.288574 162.974579,611.976135 
	C163.649338,597.373291 171.345184,586.921814 184.935638,582.079712 
	C204.454071,575.125610 223.277603,577.777588 240.640274,589.211548 
	C246.727539,593.220337 246.670807,593.989258 242.373108,599.610657 
	C239.744141,603.049377 237.008743,606.416687 234.562363,609.981689 
	C232.709503,612.681702 231.171585,612.811157 228.539581,610.786926 
	C221.807587,605.609436 214.250122,602.340698 205.550964,602.378784 
	C204.718903,602.382385 203.878876,602.372681 203.056396,602.477661 
	C196.590286,603.302979 191.226822,607.163574 190.452148,611.517944 
	C189.646942,616.043945 192.501190,620.102722 199.640747,623.070679 
	C207.310776,626.259216 215.253220,628.787048 223.038895,631.704407 
	C232.108902,635.103027 240.243927,639.764832 245.192947,649.071533 
z"/>
<path fill="#000000" opacity="1.000000" stroke="none" 
	d="
M833.000122,673.667114 
	C840.995300,673.674316 848.492065,673.776367 855.984802,673.644409 
	C859.182190,673.588074 860.454163,674.747009 860.375122,677.998535 
	C860.217468,684.477783 860.328491,690.963562 860.328491,697.121460 
	C858.637146,698.887390 856.875061,698.327515 855.285950,698.330139 
	C832.967041,698.367188 810.647034,698.245667 788.329956,698.453735 
	C783.651245,698.497375 781.899597,697.236755 781.923523,692.327148 
	C782.097107,656.684448 782.076721,621.040527 781.974548,585.397339 
	C781.964233,581.799561 783.006104,580.234619 786.705200,580.286133 
	C792.851990,580.371826 799.004944,580.272827 805.150757,580.093689 
	C809.411499,579.969421 809.365112,582.686707 809.360474,585.723633 
	C809.319031,612.539612 809.329346,639.355713 809.330627,666.171753 
	C809.330994,673.667847 809.340576,673.668213 817.009949,673.668518 
	C822.173340,673.668701 827.336731,673.667725 833.000122,673.667114 
z"/>
<path fill="#000000" opacity="1.000000" stroke="none" 
	d="
M333.142151,767.703979 
	C331.862885,764.717590 332.220703,761.419739 329.153809,758.906189 
	C327.417389,764.587585 325.802979,769.779480 324.251343,774.989929 
	C323.611206,777.139465 322.481140,778.525391 320.024536,778.366028 
	C318.235504,778.249878 316.228699,778.672546 315.499786,776.275208 
	C312.277222,765.675720 309.051575,755.077271 305.807678,744.414795 
	C313.182587,742.977356 313.428955,743.184204 315.296509,749.397034 
	C316.471924,753.307373 316.864136,757.509277 319.525116,761.714417 
	C323.050262,757.519592 323.108673,752.522461 324.892365,748.269836 
	C325.559692,746.678711 325.320618,744.295105 327.637665,743.904785 
	C330.645325,743.398132 333.422546,743.063049 334.663452,747.263672 
	C336.244507,752.615845 337.126617,758.275452 340.487091,763.842285 
	C342.032318,758.446594 343.685364,753.771118 344.665466,748.958618 
	C345.750946,743.628601 348.707397,742.718689 353.979797,744.397949 
	C350.808960,754.956543 347.637604,765.399170 344.559601,775.869263 
	C343.967743,777.882385 342.670715,778.313843 340.836426,778.389648 
	C338.069733,778.504089 335.968140,778.023193 335.356598,774.743164 
	C334.932831,772.470215 333.989044,770.294250 333.142151,767.703979 
z"/>
<path fill="#000000" opacity="1.000000" stroke="none" 
	d="
M519.573975,759.760254 
	C519.573242,754.314697 519.573242,749.344177 519.573242,744.374573 
	C524.165649,742.811401 527.240417,743.656006 529.734375,747.552246 
	C532.670959,752.140076 536.094421,756.416382 539.790649,761.492249 
	C541.462280,756.537842 540.593323,752.279480 540.691895,748.134766 
	C540.764160,745.093628 541.563904,743.570007 544.955750,743.585083 
	C548.139221,743.599182 549.010010,745.103149 548.996948,747.864258 
	C548.955872,756.524902 548.994690,765.186157 548.906311,773.846191 
	C548.890320,775.414795 549.227539,777.471436 547.148987,778.082947 
	C544.962524,778.726379 542.841064,778.401245 541.332214,776.363403 
	C537.766235,771.546997 534.204041,766.727661 530.615784,761.927856 
	C530.040039,761.157654 529.337646,760.482178 528.313416,759.337830 
	C526.536011,764.295593 527.478210,768.924744 527.293579,773.436768 
	C527.183044,776.140137 527.117615,778.315002 523.408325,778.378845 
	C519.852112,778.440125 519.136169,776.508972 519.184998,773.706970 
	C519.263245,769.215515 519.439697,764.725830 519.573975,759.760254 
z"/>
<path fill="#000000" opacity="1.000000" stroke="none" 
	d="
M798.931885,766.056274 
	C797.221069,763.913391 796.444214,761.238464 793.081970,760.915222 
	C791.628418,765.128662 792.605530,769.456116 792.371582,773.672241 
	C792.237976,776.079041 792.472046,778.348755 788.894653,778.385742 
	C785.466431,778.421143 784.665527,776.746582 784.694458,773.753235 
	C784.775085,765.430603 784.653870,757.105957 784.745911,748.783569 
	C784.765930,746.972351 783.892212,744.386780 786.753113,743.860596 
	C789.350952,743.382812 792.111084,743.086365 793.992615,745.780457 
	C796.183838,748.917847 798.374207,752.057861 800.655640,755.129456 
	C801.911804,756.820496 802.795715,758.919861 805.367798,759.826172 
	C807.576538,756.140015 806.451782,752.093323 806.589600,748.269958 
	C806.689941,745.485962 806.900208,743.393188 810.461853,743.300781 
	C814.141602,743.205322 814.365112,745.371521 814.342407,748.148376 
	C814.273010,756.637817 814.356995,765.128540 814.277039,773.617737 
	C814.261169,775.296997 814.973633,777.583130 812.395996,778.146362 
	C810.217224,778.622437 808.130310,778.454529 806.608398,776.337585 
	C804.180725,772.960754 801.630127,769.672363 798.931885,766.056274 
z"/>
<path fill="#000000" opacity="1.000000" stroke="none" 
	d="
M646.532837,743.619324 
	C650.096191,743.500732 650.294067,745.584473 650.285950,747.938477 
	C650.256226,756.584534 650.301941,765.230896 650.249573,773.876770 
	C650.240112,775.448303 650.720642,777.510803 648.563110,778.080383 
	C646.432678,778.642761 644.278015,778.591614 642.737427,776.470764 
	C640.002747,772.706421 637.183716,769.003357 634.441833,765.244263 
	C633.084717,763.383789 631.961426,761.313904 628.984558,760.124268 
	C627.721191,764.959717 628.453491,769.716064 628.376526,774.365417 
	C628.326233,777.403931 627.156311,778.482178 624.184082,778.356262 
	C621.622375,778.247742 620.656738,777.141663 620.670837,774.670288 
	C620.723022,765.525818 620.682251,756.380859 620.713074,747.236206 
	C620.718018,745.756042 620.639832,744.015686 622.714111,743.814758 
	C625.330322,743.561218 628.047241,743.037292 629.948914,745.760986 
	C632.422363,749.303589 634.974548,752.792542 637.553101,756.259705 
	C638.519714,757.559448 639.123535,759.240540 641.249451,759.927246 
	C643.870850,756.062866 642.308289,751.665894 642.585999,747.566895 
	C642.753723,745.090393 642.995972,743.220154 646.532837,743.619324 
z"/>
<path fill="#000000" opacity="1.000000" stroke="none" 
	d="
M842.094849,759.303101 
	C846.293213,757.058838 850.470032,758.119446 854.578369,758.153931 
	C855.454346,758.161255 856.086060,758.705200 856.550903,759.470581 
	C858.156860,762.114807 856.897949,771.993408 854.655457,774.168579 
	C848.321533,780.312378 836.850037,780.605591 829.916809,774.800903 
	C822.924561,768.946960 821.465881,757.345276 826.776367,749.823608 
	C831.920166,742.537781 842.470276,740.317322 850.464844,744.937500 
	C852.439636,746.078735 855.029602,747.243103 854.862549,749.868713 
	C854.715637,752.176453 852.329285,753.105164 850.190491,754.053101 
	C849.390747,753.480591 848.586914,752.910034 847.788269,752.332397 
	C843.884705,749.508850 839.800110,749.017700 835.810791,751.927673 
	C832.123474,754.617249 830.726929,761.205811 832.886047,765.597534 
	C834.980896,769.858643 838.387329,772.203735 843.369751,771.600769 
	C845.646118,771.325317 847.991760,770.509094 848.385315,768.178772 
	C848.885620,765.216797 846.084534,765.566528 844.232361,765.221680 
	C840.637329,764.552368 841.861877,761.881470 842.094849,759.303101 
z"/>
<path fill="#000000" opacity="1.000000" stroke="none" 
	d="
M208.095566,743.572021 
	C219.085144,740.809387 227.776596,745.296265 230.625290,754.896118 
	C233.613708,764.966858 228.824249,775.153625 219.727982,778.073792 
	C210.238266,781.120239 200.256699,776.693115 197.100723,768.037842 
	C193.214111,757.378967 197.417404,747.708679 208.095566,743.572021 
M215.856369,750.395752 
	C214.861313,750.352539 213.857910,750.204895 212.872604,750.283752 
	C207.844360,750.686096 204.549423,754.254822 204.288589,759.504150 
	C203.972412,765.867737 207.175018,770.715637 212.252304,771.558960 
	C216.802673,772.314819 221.136017,769.388123 222.829010,764.415527 
	C224.855347,758.463806 222.824966,753.931030 215.856369,750.395752 
z"/>
<path fill="#000000" opacity="1.000000" stroke="none" 
	d="
M751.937012,768.103882 
	C753.211914,771.491943 755.866333,773.923157 755.962646,777.634277 
	C751.600586,779.065857 748.125549,778.975281 746.073303,774.125916 
	C745.108887,771.846863 743.664185,769.758301 742.323120,767.656189 
	C741.515625,766.390442 740.189514,766.118713 738.783386,766.501343 
	C737.412170,766.874573 737.131836,768.030945 737.068115,769.237183 
	C736.980225,770.898682 736.938232,772.563660 736.918884,774.227600 
	C736.886230,777.035095 735.768677,778.425476 732.682800,778.373718 
	C729.519287,778.320679 728.704712,776.782043 728.723206,773.999634 
	C728.781860,765.175049 728.741455,756.349854 728.745361,747.524902 
	C728.746216,745.566406 729.018066,743.722839 731.568420,743.724121 
	C736.558411,743.726562 741.639282,743.229736 746.518616,743.990662 
	C755.317200,745.362732 758.571289,753.936340 753.545044,761.494934 
	C752.256958,763.432129 750.460754,765.138855 751.937012,768.103882 
M746.186401,752.058411 
	C743.017639,750.158203 739.797363,748.919312 737.357971,752.927185 
	C736.644470,754.099426 736.641418,756.070129 737.935059,757.033203 
	C740.101501,758.646118 742.678040,758.221985 744.951111,757.229065 
	C746.888489,756.382751 748.207031,754.878296 746.186401,752.058411 
z"/>
<path fill="#000000" opacity="1.000000" stroke="none" 
	d="
M586.077148,745.789307 
	C588.025391,747.584106 590.535767,748.998230 588.182434,751.689636 
	C586.193787,753.963928 584.178223,754.424988 581.407959,752.176880 
	C577.601440,749.087830 573.319336,749.458374 569.476318,752.481445 
	C566.042358,755.182678 564.978394,761.322632 567.127380,765.823669 
	C569.133240,770.025085 572.554321,772.003296 577.232178,771.588989 
	C579.497681,771.388428 581.827026,770.631104 582.276978,768.239014 
	C582.851685,765.183533 580.044983,765.537354 578.217285,765.247620 
	C575.980225,764.892944 575.763916,763.378113 575.739502,761.600220 
	C575.713745,759.719116 576.264893,758.320129 578.392212,758.085754 
	C578.557617,758.067566 578.731873,757.994568 578.885864,758.026001 
	C582.645630,758.792725 587.930969,755.185974 590.022278,760.140015 
	C593.020630,767.242554 590.059021,774.301636 584.186707,777.160217 
	C576.285095,781.006531 567.078796,778.939026 561.722290,772.115112 
	C556.646545,765.648926 556.652832,755.010925 561.735962,748.913818 
	C567.498535,742.001709 576.554810,740.742737 586.077148,745.789307 
z"/>
<path fill="#000000" opacity="1.000000" stroke="none" 
	d="
M406.006775,767.311646 
	C405.626312,769.941040 405.322327,772.256470 405.366058,774.565369 
	C405.419464,777.383057 404.176453,778.397217 401.449768,778.325500 
	C399.062958,778.262756 397.680206,777.546509 397.691498,774.898254 
	C397.734680,764.754211 397.708984,754.609863 397.708984,743.643494 
	C404.243652,743.796753 410.545074,742.774963 416.672058,744.235840 
	C423.914886,745.962830 427.326385,754.450073 422.761505,760.545288 
	C419.513275,764.882568 419.994812,768.058411 422.503632,771.981567 
	C423.557251,773.629211 424.254730,775.504639 425.317566,777.695984 
	C420.572754,778.972290 416.934082,779.021973 414.802460,774.058228 
	C413.823700,771.779114 412.569794,769.569275 411.125519,767.553894 
	C409.874603,765.808350 408.018524,765.895691 406.006775,767.311646 
M409.803955,750.500488 
	C405.944519,751.843079 403.700928,756.134949 406.160889,757.546631 
	C408.492065,758.884399 411.331635,758.293823 413.803040,757.244690 
	C415.292023,756.612549 416.068420,755.205627 415.624695,753.559937 
	C414.937103,751.009827 412.811523,750.574707 409.803955,750.500488 
z"/>
<path fill="#000000" opacity="1.000000" stroke="none" 
	d="
M355.908142,775.766479 
	C359.602051,766.275024 363.286591,757.175720 366.743927,747.990967 
	C367.890961,744.943848 369.481201,743.523621 372.933960,743.531250 
	C376.207733,743.538574 377.667786,744.905334 378.740417,747.739258 
	C382.489014,757.642822 386.407074,767.482239 390.398224,777.697937 
	C385.665894,778.755737 382.074280,779.463562 380.218109,774.103821 
	C378.634338,769.530579 374.308411,771.577576 371.079163,771.179932 
	C368.189423,770.824097 366.108368,771.692627 364.826843,774.780823 
	C362.926697,779.359802 358.375122,779.879944 355.908142,775.766479 
M374.664398,759.010498 
	C374.215759,757.914978 373.540771,756.494080 372.275482,757.219299 
	C370.092163,758.470581 369.933838,760.811096 369.876404,763.315552 
	C373.010437,763.667053 375.637115,763.933350 374.664398,759.010498 
z"/>
<path fill="#000000" opacity="1.000000" stroke="none" 
	d="
M501.932434,778.350830 
	C497.442688,778.353149 493.444153,778.324036 489.446503,778.369568 
	C487.091187,778.396362 485.648224,777.634949 485.659302,774.968994 
	C485.701447,764.821106 485.676331,754.672852 485.676331,743.744019 
	C492.908295,743.744019 499.823608,743.654114 506.734253,743.794678 
	C509.033447,743.841492 508.968384,745.854553 508.943054,747.555237 
	C508.917297,749.284973 508.249298,750.431213 506.296936,750.425415 
	C503.132050,750.416016 499.966644,750.475220 496.802277,750.437805 
	C494.568207,750.411377 493.450958,751.293640 493.394257,753.668823 
	C493.332397,756.261597 494.777985,756.722107 496.884033,756.687683 
	C499.381897,756.646729 501.882599,756.753906 504.379700,756.695007 
	C507.173798,756.629150 508.213409,757.956299 508.130768,760.681580 
	C508.053497,763.230591 507.293152,764.854065 504.430450,764.862305 
	C501.766602,764.869995 499.102478,764.977966 496.439606,765.073242 
	C494.775909,765.132690 493.495453,765.686890 493.439026,767.650452 
	C493.376495,769.824951 494.640839,770.583618 496.586304,770.604797 
	C499.417999,770.635559 502.252594,770.740662 505.080872,770.651978 
	C507.902039,770.563477 509.369659,771.440186 509.368896,774.612671 
	C509.368103,777.938110 507.599548,778.515503 504.922485,778.355530 
	C504.092529,778.305908 503.257019,778.349670 501.932434,778.350830 
z"/>
<path fill="#000000" opacity="1.000000" stroke="none" 
	d="
M671.027710,778.346313 
	C660.723145,778.262634 661.716064,779.357971 661.661560,769.589417 
	C661.614502,761.153198 661.651733,752.716492 661.651733,743.600525 
	C668.963074,743.600525 675.720886,743.616455 682.478577,743.591614 
	C684.750000,743.583252 685.213318,744.952209 685.229431,746.844910 
	C685.246887,748.895081 684.895203,750.501160 682.297241,750.424255 
	C679.806702,750.350525 677.312012,750.428223 674.820435,750.376038 
	C672.167725,750.320496 669.539246,750.406555 669.618530,754.014343 
	C669.694580,757.475159 672.514465,756.472168 674.475464,756.615784 
	C676.459473,756.761108 678.463745,756.734375 680.454407,756.658142 
	C683.147400,756.554993 684.376038,757.623657 684.317566,760.457092 
	C684.259460,763.273926 682.943726,764.286072 680.307312,764.233704 
	C677.650696,764.180847 674.990479,764.237427 672.333252,764.302673 
	C670.276184,764.353149 669.405090,765.530884 669.397949,767.524597 
	C669.390503,769.613220 670.456909,770.552795 672.464294,770.573547 
	C674.790283,770.597656 677.116455,770.614685 679.442505,770.632568 
	C685.759033,770.681274 686.002258,771.000305 684.684631,778.345886 
	C680.385803,778.345886 675.953247,778.345886 671.027710,778.346313 
z"/>
<path fill="#000000" opacity="1.000000" stroke="none" 
	d="
M715.733643,756.764648 
	C719.138916,757.880188 718.332092,760.314026 717.942749,762.301758 
	C717.524231,764.438171 715.479736,764.173035 713.845276,764.221924 
	C711.347168,764.296753 708.846252,764.274170 706.347412,764.332275 
	C704.293274,764.380005 703.376465,765.502075 703.377075,767.525269 
	C703.377686,769.618225 704.447388,770.561707 706.458984,770.583008 
	C709.458618,770.614685 712.460571,770.721375 715.457336,770.639954 
	C718.164062,770.566223 719.363281,771.607788 719.348206,774.437927 
	C719.333557,777.178162 718.326538,778.387695 715.536621,778.343079 
	C710.038330,778.255066 704.537476,778.294922 699.037964,778.329163 
	C696.778992,778.343201 695.669800,777.359863 695.674927,775.049377 
	C695.697693,764.745239 695.684814,754.441162 695.684814,743.599792 
	C702.777222,743.599792 709.547913,743.604187 716.318604,743.596985 
	C718.212891,743.594971 719.051208,744.568115 718.965881,746.404053 
	C718.878235,748.289185 718.796143,750.229431 716.209534,750.327087 
	C713.046631,750.446594 709.881409,750.510376 706.716736,750.576538 
	C704.554016,750.621765 703.226685,751.418274 703.377502,753.862488 
	C703.514771,756.086182 704.910339,756.582581 706.773682,756.599243 
	C709.606506,756.624573 712.439270,756.669678 715.733643,756.764648 
z"/>
<path fill="#000000" opacity="1.000000" stroke="none" 
	d="
M438.162048,778.317200 
	C435.186249,778.327820 434.665314,776.758057 434.669891,774.681519 
	C434.690033,765.518311 434.703186,756.355103 434.677643,747.192017 
	C434.671631,745.036133 435.340607,743.657471 437.775665,743.667297 
	C444.069397,743.692688 450.363281,743.675842 456.549927,743.675842 
	C458.015320,750.203247 457.695160,750.622925 452.024902,750.479248 
	C450.028687,750.428650 448.020660,750.408142 446.033325,750.566040 
	C444.089935,750.720459 442.428162,751.369324 442.411926,753.817749 
	C442.394379,756.468689 444.194916,756.649292 446.144989,756.662170 
	C448.477448,756.677490 450.811890,756.743103 453.141907,756.671326 
	C455.735229,756.591553 457.194305,757.433716 457.220032,760.348572 
	C457.247345,763.446594 455.786987,764.471863 452.921082,764.355896 
	C450.593414,764.261597 448.257294,764.373108 445.924988,764.396606 
	C443.806976,764.418030 442.425812,765.180542 442.385681,767.590149 
	C442.343567,770.117615 443.817047,770.657959 445.930267,770.626343 
	C448.428711,770.588989 450.928497,770.656006 453.427368,770.635010 
	C456.054657,770.612915 458.330841,770.577209 458.387024,774.394043 
	C458.448090,778.546143 455.940887,778.383362 453.142303,778.357239 
	C448.311066,778.312073 443.479095,778.341492 438.162048,778.317200 
z"/>
<path fill="#000000" opacity="1.000000" stroke="none" 
	d="
M173.587067,771.552368 
	C174.800293,771.625610 175.631500,771.665283 176.462402,771.659668 
	C178.480179,771.645996 180.130753,770.940308 180.584290,768.808044 
	C181.085632,766.451050 179.312042,765.633301 177.567856,764.904175 
	C174.657837,763.687622 171.680206,762.612488 168.845459,761.241272 
	C165.445770,759.596924 163.554352,756.953735 163.611374,752.929382 
	C163.670258,748.772095 165.681564,746.055481 169.131134,744.151062 
	C173.853958,741.543701 183.876328,742.008057 188.010834,747.536011 
	C186.471313,751.098083 184.532867,753.411560 180.228317,750.648560 
	C179.164169,749.965515 177.710861,749.634583 176.427521,749.610046 
	C174.752731,749.578003 172.944748,750.091980 172.240616,751.790039 
	C171.381531,753.861877 173.171463,754.856567 174.595764,755.561584 
	C177.268463,756.884583 180.080811,757.925293 182.834229,759.085449 
	C187.097824,760.881958 189.572678,763.977417 189.260605,768.718506 
	C188.956482,773.338440 186.330078,776.292603 182.015182,777.909607 
	C176.098373,780.127075 170.587479,779.153198 165.389557,775.899414 
	C163.713486,774.850159 161.821274,773.590027 163.598007,771.142761 
	C165.027740,769.173401 166.461395,767.338867 169.234482,769.455322 
	C170.399231,770.344238 171.872116,770.829407 173.587067,771.552368 
z"/>
<path fill="#000000" opacity="1.000000" stroke="none" 
	d="
M247.745056,777.994934 
	C240.830872,778.438232 240.791977,778.414673 240.782379,772.151367 
	C240.770142,764.170776 240.889969,756.188049 240.733322,748.210571 
	C240.665756,744.770203 241.929306,743.461182 245.384460,743.563660 
	C251.492172,743.744812 257.609131,743.614441 263.547394,743.614441 
	C264.682434,746.084290 264.292114,747.969543 263.978760,750.084595 
	C259.178040,750.974915 254.440491,749.759277 250.035446,751.095154 
	C248.615433,758.148499 248.949173,758.587830 255.524841,758.638428 
	C257.186951,758.651245 258.848785,758.706360 260.510895,758.717773 
	C262.704498,758.732910 263.307648,760.047302 263.295654,761.973206 
	C263.283722,763.883972 263.166779,766.335938 260.742249,765.901367 
	C251.190414,764.189270 248.255203,769.032837 248.507767,777.469177 
	C248.511261,777.586365 248.293793,777.710144 247.745056,777.994934 
z"/>
<path fill="#000000" opacity="1.000000" stroke="none" 
	d="
M289.261017,760.111877 
	C289.253540,765.248596 289.193787,769.903503 289.255920,774.556824 
	C289.293030,777.335327 288.008331,778.346558 285.299469,778.361572 
	C282.409393,778.377563 281.587585,777.002319 281.621338,774.368835 
	C281.700134,768.219727 281.588013,762.068481 281.630310,755.918579 
	C281.653168,752.594727 280.709534,750.563965 276.788544,750.842102 
	C271.917694,751.187622 270.779388,748.462463 272.143524,743.604614 
	C280.072357,743.604614 288.162415,743.625854 296.252258,743.590576 
	C298.433105,743.581055 299.165222,744.694946 299.133301,746.700745 
	C299.102203,748.656372 298.838135,750.926270 296.443756,750.603027 
	C288.699829,749.557617 288.765167,754.335388 289.261017,760.111877 
z"/>
<path fill="#000000" opacity="1.000000" stroke="none" 
	d="
M609.145630,765.978882 
	C609.138245,768.963135 609.099609,771.452332 609.127197,773.940857 
	C609.161011,776.995544 607.916626,778.430481 604.639160,778.365051 
	C601.505981,778.302490 600.669556,776.823608 600.691589,774.026550 
	C600.760803,765.232666 600.781677,756.437073 600.680542,747.643799 
	C600.645569,744.600098 601.955078,743.615662 604.867676,743.609924 
	C607.737244,743.604248 609.223267,744.495483 609.180359,747.563232 
	C609.096802,753.535645 609.148132,759.510010 609.145630,765.978882 
z"/>
<path fill="#000000" opacity="1.000000" stroke="none" 
	d="
M772.147522,743.777710 
	C774.298340,750.103455 772.998291,756.430786 773.309021,762.688110 
	C773.507202,766.676758 773.235413,770.686646 773.345093,774.682373 
	C773.425842,777.625305 771.929626,778.361389 769.316895,778.329529 
	C766.870300,778.299805 765.607971,777.459106 765.619995,774.851929 
	C765.666748,764.709351 765.639038,754.566406 765.639038,744.615784 
	C767.811890,743.065002 769.845276,743.721680 772.147522,743.777710 
z"/>
<path fill="#000000" opacity="1.000000" stroke="none" 
	d="
M536.100830,437.878052 
	C526.716858,457.111877 510.489258,466.662750 490.740112,469.945312 
	C464.497589,474.307129 439.329529,470.555878 416.473969,455.903809 
	C409.855225,451.660736 403.924438,446.571259 398.596069,440.774933 
	C396.870422,438.897705 396.314514,437.328217 398.562653,435.332153 
	C406.148041,428.597107 413.625305,421.740295 421.403198,414.695221 
	C427.643463,419.594879 433.180023,424.866974 439.775238,428.778473 
	C455.552490,438.135651 472.309143,439.883575 489.799896,435.326508 
	C499.259491,432.861908 504.940460,425.424042 505.609283,415.714844 
	C506.170227,407.571686 501.830200,400.349915 493.145721,396.403564 
	C478.113617,389.572754 462.017426,385.733612 446.451019,380.395111 
	C438.413544,377.638702 430.374817,374.909393 423.111176,370.368805 
	C407.831970,360.817596 399.946625,347.290497 399.526825,329.014771 
	C399.097687,310.331757 404.666718,294.645935 419.624664,282.894104 
	C429.143250,275.415741 440.208923,271.871185 452.130249,271.803802 
	C488.955414,271.595764 525.792175,271.237091 562.605286,271.942596 
	C584.123474,272.354980 603.519897,279.019501 617.175903,297.335785 
	C627.617188,311.340302 630.265869,327.359680 629.206238,344.152527 
	C627.919800,364.540344 618.779053,380.738007 601.449646,391.881866 
	C592.011353,397.951233 581.448486,400.918518 570.282166,401.263062 
	C560.641602,401.560516 550.984558,401.324829 540.363525,401.324829 
	C542.028198,413.653687 541.887146,425.975525 536.100830,437.878052 
M516.697449,365.671295 
	C520.830933,368.139893 525.279480,368.813049 530.084717,368.723938 
	C541.411438,368.513855 552.745239,368.736176 564.075562,368.667755 
	C581.057312,368.565277 592.954773,358.044403 594.614746,341.785828 
	C596.469910,323.615967 587.227905,309.872284 570.522766,306.323639 
	C559.993774,304.087036 549.268433,305.623108 538.648010,305.086212 
	C534.307373,304.866791 532.765564,306.472565 532.849609,310.848633 
	C533.089355,323.341339 532.998901,335.840790 532.984985,348.337524 
	C532.982849,350.252136 533.535889,352.357391 531.408508,354.289581 
	C522.114929,351.395752 512.673706,348.265259 503.107635,345.579468 
	C499.707031,344.624725 498.583862,343.001038 498.630890,339.632263 
	C498.770294,329.636566 498.652893,319.637543 498.680908,309.639923 
	C498.687592,307.252350 498.433685,305.373016 495.307220,305.314453 
	C482.324738,305.071198 469.342194,304.411896 456.363922,304.504517 
	C446.833435,304.572479 438.424408,311.571503 436.483917,319.962128 
	C434.392822,329.003876 437.472412,335.193665 446.871460,341.061554 
	C450.006470,343.018768 453.355316,344.453400 456.833588,345.635498 
	C476.513794,352.323975 496.800568,357.196899 516.697449,365.671295 
z"/>
</svg>